<svg xmlns="http://www.w3.org/2000/svg"  viewBox="0 0 32 32" width="128px" height="128px"><path d="M 15.5 1 C 15.224 1 15 1.224 15 1.5 L 15 4.4394531 C 12.954 4.6464531 11.283703 6.085 10.720703 8 L 7.8164062 8 C 7.4024063 6.839 6.302 6 5 6 C 3.346 6 2 7.346 2 9 C 2 10.654 3.346 12 5 12 C 6.302 12 7.4024062 11.161 7.8164062 10 L 10.5 10 L 10.5 11.5 C 10.5 11.776 10.724 12 11 12 L 12 12 C 12.276 12 12.5 11.776 12.5 11.5 L 12.5 9.5078125 C 12.5 8.0568125 13.478344 6.7232656 14.902344 6.4472656 C 16.817344 6.0752656 18.5 7.5386719 18.5 9.3886719 L 18.5 11.5 C 18.5 11.776 18.724 12 19 12 L 20 12 C 20.276 12 20.5 11.776 20.5 11.5 L 20.5 10 L 25 10 C 25.409 10 25.776687 9.7510938 25.929688 9.3710938 L 26.882812 6.9882812 C 26.922813 6.9902812 26.96 7 27 7 C 28.654 7 30 5.654 30 4 C 30 2.346 28.654 1 27 1 C 25.346 1 24 2.346 24 4 C 24 4.896 24.401391 5.6911875 25.025391 6.2421875 L 24.322266 8 L 20.287109 8 C 19.819109 6.408 18.582 5.1465313 17 4.6445312 L 17 1.5 C 17 1.224 16.776 1 16.5 1 L 15.5 1 z M 27 2.5 C 27.827 2.5 28.5 3.173 28.5 4 C 28.5 4.827 27.827 5.5 27 5.5 C 26.173 5.5 25.5 4.827 25.5 4 C 25.5 3.173 26.173 2.5 27 2.5 z M 5 7.5 C 5.827 7.5 6.5 8.173 6.5 9 C 6.5 9.827 5.827 10.5 5 10.5 C 4.173 10.5 3.5 9.827 3.5 9 C 3.5 8.173 4.173 7.5 5 7.5 z M 15.5 8 C 14.672 8 14 8.672 14 9.5 L 14 20.136719 C 14 20.520719 13.586906 20.763266 13.253906 20.572266 C 12.637906 20.218266 11.804781 19.738625 11.425781 19.515625 C 10.086781 18.727625 8.4093281 18.86175 7.2363281 19.84375 C 7.1033281 19.95475 7.1045625 20.164109 7.2265625 20.287109 C 7.7465625 20.809109 9.057 22.121547 10 23.060547 C 11.372 24.427547 12.4 25.467 14 26 L 14 30 L 23 30 L 23 26 C 25.445 24.37 25.896469 20.746891 25.980469 17.837891 C 26.010469 16.798891 25.234172 15.915781 24.201172 15.800781 L 18.5 15.167969 L 18.5 16.25 C 18.5 16.664 18.164 17 17.75 17 C 17.336 17 17 16.664 17 16.25 L 17 9.5 C 17 8.672 16.328 8 15.5 8 z"/></svg>